<svg xmlns="http://www.w3.org/2000/svg" viewBox="0 0 26 26"><g fill="#fff" transform="translate(5 -1030.698)"><circle cx="8" cy="1043.698" r="13" fill="#ff3847" fill-rule="evenodd"/><path fill="#e01e10" style="line-height:normal;text-indent:0;text-align:start;text-decoration-line:none;text-decoration-style:solid;text-decoration-color:#000;text-transform:none;block-progression:tb;isolation:auto;mix-blend-mode:normal;marker:none" d="M 14.882812 25.849609 A 12.999989 12.999989 0 0 0 15.208984 25.810547 A 12.999989 12.999989 0 0 0 16.476562 25.525391 A 12.999989 12.999989 0 0 0 17.710938 25.117188 A 12.999989 12.999989 0 0 0 18.896484 24.585938 A 12.999989 12.999989 0 0 0 20.023438 23.939453 A 12.999989 12.999989 0 0 0 21.080078 23.183594 A 12.999989 12.999989 0 0 0 22.056641 22.326172 A 12.999989 12.999989 0 0 0 22.943359 21.375 A 12.999989 12.999989 0 0 0 23.728516 20.339844 A 12.999989 12.999989 0 0 0 24.408203 19.232422 A 12.999989 12.999989 0 0 0 24.974609 18.0625 A 12.999989 12.999989 0 0 0 25.419922 16.841797 A 12.999989 12.999989 0 0 0 25.740234 15.582031 A 12.999989 12.999989 0 0 0 25.935547 14.296875 A 12.999989 12.999989 0 0 0 25.998047 13.048828 L 19.949219 7 L 6.0507812 7 C 6.0492513 10.1026 6.0480316 13.581662 6.0722656 17.039062 L 14.882812 25.849609 z " color="#000" font-family="sans-serif" font-weight="400" transform="translate(-5 1030.698)" white-space="normal"/><path style="line-height:normal;text-indent:0;text-align:start;text-decoration-line:none;text-decoration-style:solid;text-decoration-color:#000;text-transform:none;block-progression:tb;isolation:auto;mix-blend-mode:normal;marker:none" d="m 72.251874,1016.2088 13.014085,0 c -0.0017,3.3827 -0.0184,6.9528 -0.02012,10.339 l -7.419638,0 c -0.12589,-10e-5 -0.247011,0.048 -0.338337,0.1348 l -2.437854,2.3087 0,-1.9669 c 9.69e-4,-0.2729 -0.220854,-0.4943 -0.493789,-0.4927 l -2.284232,0.014 c -0.02269,-3.56 -0.02155,-7.1424 -0.02012,-10.337 z m 2.761561,2.0835 0,1.0296 8.425504,0 0,-1.0296 z m 0,2.0573 0,1.0297 8.425504,0 0,-1.0297 z m 3.745481,2.0594 0,1.0297 4.680023,0 0,-1.0297 z" color="#000" font-family="sans-serif" font-weight="400" overflow="visible" transform="matrix(1.06795 0 0 .97117 -76.11 50.783)" white-space="normal"/></g></svg>