<svg xmlns="http://www.w3.org/2000/svg" viewBox="0 0 64 64"><radialGradient id="C_WIUm2dgDO13RADpPNsja" cx="32" cy="31.5" r="31.751" gradientUnits="userSpaceOnUse" spreadMethod="reflect"><stop offset="0" stop-color="#ecd59c"></stop><stop offset=".242" stop-color="#efd9a4"></stop><stop offset=".627" stop-color="#f6e5bb"></stop><stop offset="1" stop-color="#fff3d8"></stop></radialGradient><linearGradient id="C_WIUm2dgDO13RADpPNsjb" x1="39.5" x2="39.5" y1="29.675" y2="63.193" gradientUnits="userSpaceOnUse" spreadMethod="reflect"><stop offset="0" stop-color="#40daf2"></stop><stop offset="1" stop-color="#1ba7dd"></stop></linearGradient><path fill="url(#C_WIUm2dgDO13RADpPNsjb)" d="M51,33H28c-2.2,0-4,1.8-4,4v13c0,2.2,1.8,4,4,4h17.901c1.09,0,2.093,0.591,2.622,1.543 l1.692,3.045c0.402,0.723,1.097,1.278,1.917,1.388C53.679,60.184,55,58.987,55,57.482V50V37C55,34.8,53.2,33,51,33z"></path><linearGradient id="C_WIUm2dgDO13RADpPNsjc" x1="28.5" x2="28.5" y1="46" y2="3.088" gradientUnits="userSpaceOnUse" spreadMethod="reflect"><stop offset="0" stop-color="#155cde"></stop><stop offset=".007" stop-color="#155dde"></stop><stop offset=".459" stop-color="#238ce8"></stop><stop offset=".804" stop-color="#2baaee"></stop><stop offset="1" stop-color="#2eb5f0"></stop></linearGradient><path fill="url(#C_WIUm2dgDO13RADpPNsjc)" d="M45,9H12c-2.2,0-4,1.8-4,4v20v5l0,4.688c0,1.47,0.932,2.85,2.356,3.212 c1.428,0.363,2.862-0.292,3.543-1.519l2.402-4.323C17.007,38.788,18.345,38,19.798,38H45c2.2,0,4-1.8,4-4V13C49,10.8,47.2,9,45,9z"></path><linearGradient id="C_WIUm2dgDO13RADpPNsjd" x1="81.34" x2="27.575" y1="38.5" y2="38.5" gradientUnits="userSpaceOnUse" spreadMethod="reflect"><stop offset="0" stop-color="#40daf2"></stop><stop offset=".17" stop-color="#34caeb"></stop><stop offset=".439" stop-color="#26b6e3"></stop><stop offset=".714" stop-color="#1eabdf"></stop><stop offset="1" stop-color="#1ba7dd"></stop></linearGradient><path fill="url(#C_WIUm2dgDO13RADpPNsjd)" d="M45,44c4.873,0,8.937-3.506,9.818-8.126C54.326,34.221,52.807,33,51,33h-2v1c0,2.2-1.8,4-4,4 H24v6H45z"></path><path fill="#fff" d="M28.5 21A2.5 2.5 0 1 0 28.5 26 2.5 2.5 0 1 0 28.5 21zM37.5 21A2.5 2.5 0 1 0 37.5 26 2.5 2.5 0 1 0 37.5 21zM19.5 21A2.5 2.5 0 1 0 19.5 26 2.5 2.5 0 1 0 19.5 21z"></path></svg>